<svg width="43" height="43" viewBox="0 0 43 43" fill="none" xmlns="http://www.w3.org/2000/svg">
<path d="M41.11 21.055C41.11 25.0215 39.9338 28.8989 37.7301 32.197C35.5265 35.495 32.3943 38.0655 28.7297 39.5834C25.0652 41.1013 21.0328 41.4985 17.1425 40.7246C13.2522 39.9508 9.67872 38.0408 6.87398 35.236C4.06924 32.4313 2.15919 28.8578 1.38536 24.9675C0.611534 21.0772 1.00869 17.0449 2.52661 13.3803C4.04452 9.71571 6.61502 6.58355 9.91305 4.37988C13.2111 2.17621 17.0885 1 21.055 1C23.6887 1 26.2965 1.51874 28.7297 2.5266C31.1629 3.53445 33.3738 5.01169 35.236 6.87397C37.0983 8.73625 38.5756 10.9471 39.5834 13.3803C40.5913 15.8135 41.11 18.4213 41.11 21.055Z" fill="white"/>
<path d="M21.055 41.11C32.1311 41.11 41.11 32.1311 41.11 21.055C41.11 9.97893 32.1311 1 21.055 1C9.97893 1 1 9.97893 1 21.055C1 32.1311 9.97893 41.11 21.055 41.11Z" stroke="#455A64" stroke-width="2" stroke-miterlimit="10"/>
<path d="M13.9924 22.4137V20.7278L27.5635 13.8158V16.5132L17.1534 21.5286L17.2377 21.36V21.7815L17.1534 21.6129L27.5635 26.6283V29.3257L13.9924 22.4137Z" fill="#455A64"/>
</svg>
