<svg width="130" height="130" viewBox="0 0 130 130" fill="none" xmlns="http://www.w3.org/2000/svg">
<path d="M65 130C100.899 130 130 100.899 130 65C130 29.1015 100.899 0 65 0C29.1015 0 0 29.1015 0 65C0 100.899 29.1015 130 65 130Z" fill="white"/>
<path d="M65 129.5C100.622 129.5 129.5 100.622 129.5 65C129.5 29.3776 100.622 0.5 65 0.5C29.3776 0.5 0.5 29.3776 0.5 65C0.5 100.622 29.3776 129.5 65 129.5Z" stroke="#52B788"/>
<path d="M66 112C91.4051 112 112 101.479 112 88.5C112 75.5213 91.4051 65 66 65C40.5949 65 20 75.5213 20 88.5C20 101.479 40.5949 112 66 112Z" fill="#52B788"/>
<path d="M66 111.5C91.129 111.5 111.5 101.203 111.5 88.5C111.5 75.7975 91.129 65.5 66 65.5C40.871 65.5 20.5 75.7975 20.5 88.5C20.5 101.203 40.871 111.5 66 111.5Z" stroke="white"/>
<path d="M66.4766 79C84.702 79 99.4766 64.2254 99.4766 46C99.4766 27.7746 84.702 13 66.4766 13C48.2512 13 33.4766 27.7746 33.4766 46C33.4766 64.2254 48.2512 79 66.4766 79Z" fill="#52B788"/>
<path d="M66.4766 78.5C84.4258 78.5 98.9766 63.9493 98.9766 46C98.9766 28.0507 84.4258 13.5 66.4766 13.5C48.5273 13.5 33.9766 28.0507 33.9766 46C33.9766 63.9493 48.5273 78.5 66.4766 78.5Z" stroke="white"/>
</svg>
