<svg width="50" height="50" viewBox="0 0 50 50" fill="none" xmlns="http://www.w3.org/2000/svg">
<circle cx="25" cy="25" r="25" fill="#52B788"/>
<path d="M31.6023 18.6C31.6023 19.9054 31.2153 21.1814 30.49 22.2668C29.7648 23.3521 28.734 24.1981 27.5281 24.6976C26.3221 25.1971 24.995 25.3278 23.7147 25.0732C22.4345 24.8185 21.2585 24.1899 20.3354 23.2669C19.4124 22.3439 18.7838 21.1679 18.5292 19.8876C18.2745 18.6073 18.4052 17.2803 18.9047 16.0743C19.4043 14.8683 20.2502 13.8375 21.3356 13.1123C22.4209 12.3871 23.697 12 25.0023 12C26.7528 12 28.4315 12.6954 29.6693 13.9331C30.907 15.1708 31.6023 16.8496 31.6023 18.6Z" fill="white"/>
<path d="M30.0841 18.6006C30.0841 19.6063 29.7858 20.5895 29.2271 21.4257C28.6683 22.2619 27.8742 22.9137 26.945 23.2986C26.0159 23.6834 24.9934 23.7841 24.007 23.5879C23.0206 23.3917 22.1146 22.9074 21.4034 22.1963C20.6923 21.4851 20.208 20.5791 20.0118 19.5927C19.8156 18.6063 19.9163 17.5838 20.3011 16.6547C20.686 15.7255 21.3378 14.9313 22.174 14.3726C23.0102 13.8139 23.9934 13.5156 24.9991 13.5156C26.3477 13.5156 27.6411 14.0514 28.5947 15.005C29.5483 15.9586 30.0841 17.252 30.0841 18.6006Z" fill="#52B788"/>
<path d="M35.6453 35.0454H14.3563C14.1261 35.0454 13.9053 34.9539 13.7425 34.7911C13.5797 34.6284 13.4883 34.4076 13.4883 34.1774V19.4774C13.4883 19.2472 13.5797 19.0264 13.7425 18.8636C13.9053 18.7008 14.1261 18.6094 14.3563 18.6094H35.6453C35.8755 18.6094 36.0963 18.7008 36.2591 18.8636C36.4218 19.0264 36.5133 19.2472 36.5133 19.4774V34.1774C36.5133 34.4076 36.4218 34.6284 36.2591 34.7911C36.0963 34.9539 35.8755 35.0454 35.6453 35.0454Z" fill="white"/>
<path d="M27.5348 24.9728C27.5349 24.5253 27.4165 24.0858 27.1917 23.6988C26.9668 23.3119 26.6436 22.9914 26.2547 22.7699C25.8659 22.5484 25.4254 22.4337 24.9779 22.4376C24.5304 22.4415 24.0919 22.5637 23.707 22.792C23.3221 23.0202 23.0044 23.3462 22.7863 23.737C22.5682 24.1278 22.4574 24.5693 22.4652 25.0167C22.473 25.4642 22.5992 25.9016 22.8308 26.2845C23.0624 26.6674 23.3912 26.9822 23.7838 27.1968V31.2058H26.2158V27.1968C26.6151 26.9787 26.9483 26.657 27.1804 26.2657C27.4125 25.8744 27.5349 25.4278 27.5348 24.9728Z" fill="#52B788"/>
</svg>
