<svg width="60" height="60" viewBox="0 0 60 60" fill="none" xmlns="http://www.w3.org/2000/svg">
<path d="M30 59C46.0163 59 59 46.0163 59 30C59 13.9837 46.0163 1 30 1C13.9837 1 1 13.9837 1 30C1 46.0163 13.9837 59 30 59Z" stroke="white" stroke-width="2"/>
<path d="M47 16H12C11.4477 16 11 16.4477 11 17V37C11 37.5523 11.4477 38 12 38H47C47.5523 38 48 37.5523 48 37V17C48 16.4477 47.5523 16 47 16Z" fill="white"/>
<path d="M43 19H16C15.4477 19 15 19.4477 15 20V35C15 35.5523 15.4477 36 16 36H43C43.5523 36 44 35.5523 44 35V20C44 19.4477 43.5523 19 43 19Z" fill="#52B788"/>
<path d="M13.0212 39H46.4842C46.9138 39.0032 47.3329 39.1334 47.6887 39.3741C48.0446 39.6149 48.3213 39.9554 48.4842 40.353L49.9992 43.737C49.9992 44.484 49.0992 45.09 47.9992 45.09H10.4102C9.31016 45.09 8.41016 44.484 8.41016 43.737L11.0212 40.353C11.0212 40.353 11.9162 39 13.0212 39Z" fill="white"/>
<path d="M31 21H28C27.4477 21 27 21.4477 27 22V28C27 28.5523 27.4477 29 28 29H31C31.5523 29 32 28.5523 32 28V22C32 21.4477 31.5523 21 31 21Z" fill="white"/>
<path d="M30.3253 33.801C30.2334 33.9346 30.1103 34.0439 29.9668 34.1194C29.8232 34.1949 29.6635 34.2344 29.5013 34.2344C29.3391 34.2344 29.1793 34.1949 29.0358 34.1194C28.8922 34.0439 28.7692 33.9346 28.6773 33.801L25.0773 28.566C24.9745 28.4158 24.9146 28.2405 24.904 28.0588C24.8935 27.8772 24.9328 27.6961 25.0175 27.5351C25.1023 27.3741 25.2294 27.2392 25.3851 27.1451C25.5409 27.051 25.7193 27.0012 25.9013 27.001H33.1013C33.2836 27.0009 33.4624 27.0507 33.6184 27.1449C33.7745 27.2391 33.9018 27.3742 33.9867 27.5355C34.0715 27.6969 34.1106 27.8783 34.0998 28.0603C34.089 28.2423 34.0286 28.4178 33.9253 28.568L30.3253 33.801Z" fill="white"/>
</svg>
