<svg width="30" height="30" viewBox="0 0 30 30" fill="none" xmlns="http://www.w3.org/2000/svg">
<circle cx="15" cy="15" r="15" fill="#52B788"/>
<path d="M13.202 19.27C13.202 18.6393 13.2607 18.0453 13.378 17.488C13.51 16.9307 13.7373 16.4027 14.06 15.904C14.3973 15.3907 14.874 14.9213 15.49 14.496C16.018 14.1293 16.4433 13.792 16.766 13.484C17.1033 13.176 17.3453 12.8753 17.492 12.582C17.6387 12.2887 17.712 11.988 17.712 11.68C17.712 11.0787 17.4333 10.6387 16.876 10.36C16.3333 10.0667 15.4753 9.92 14.302 9.92C13.4953 9.92 12.718 9.986 11.97 10.118C11.222 10.2353 10.43 10.4333 9.594 10.712L9.066 8.556C9.88733 8.292 10.7747 8.08667 11.728 7.94C12.696 7.79333 13.664 7.72 14.632 7.72C18.372 7.72 20.242 8.93 20.242 11.35C20.242 11.8927 20.1467 12.3987 19.956 12.868C19.7653 13.3227 19.4573 13.77 19.032 14.21C18.6067 14.65 18.0493 15.1047 17.36 15.574C16.9053 15.882 16.5533 16.234 16.304 16.63C16.0547 17.026 15.8787 17.4513 15.776 17.906C15.688 18.346 15.6367 18.8007 15.622 19.27H13.202ZM12.982 24V21.14H15.842V24H12.982Z" fill="white"/>
</svg>
